<svg width="28" height="22" viewBox="0 0 28 22" fill="none" xmlns="http://www.w3.org/2000/svg">
<path d="M23.615 2.49626C21.8466 1.68483 19.9502 1.087 17.9674 0.7446C17.9313 0.737992 17.8953 0.754506 17.8767 0.787536C17.6328 1.22131 17.3626 1.78721 17.1734 2.23201C15.0408 1.91273 12.9192 1.91273 10.8303 2.23201C10.6411 1.77733 10.3611 1.22131 10.1161 0.787536C10.0975 0.755608 10.0615 0.739094 10.0254 0.7446C8.04367 1.08591 6.1473 1.68373 4.37778 2.49626C4.36246 2.50286 4.34933 2.51388 4.34061 2.52818C0.743596 7.90205 -0.241778 13.1438 0.241613 18.3206C0.2438 18.346 0.258018 18.3702 0.277703 18.3856C2.65091 20.1284 4.94977 21.1865 7.20594 21.8878C7.24205 21.8988 7.28031 21.8856 7.30329 21.8558C7.83699 21.127 8.31273 20.3585 8.72063 19.5504C8.74471 19.5031 8.72173 19.4469 8.67253 19.4282C7.91792 19.1419 7.19938 18.7929 6.50819 18.3966C6.45352 18.3647 6.44915 18.2865 6.49944 18.249C6.64489 18.14 6.79038 18.0266 6.92927 17.9121C6.95439 17.8912 6.98941 17.8868 7.01895 17.9C11.5597 19.9732 16.4757 19.9732 20.9629 17.9C20.9924 17.8857 21.0275 17.8901 21.0537 17.911C21.1926 18.0255 21.3381 18.14 21.4846 18.249C21.5349 18.2865 21.5316 18.3647 21.4769 18.3966C20.7858 18.8006 20.0672 19.1419 19.3115 19.4271C19.2623 19.4458 19.2404 19.5031 19.2645 19.5504C19.6812 20.3574 20.1569 21.1259 20.6807 21.8548C20.7026 21.8856 20.742 21.8988 20.7781 21.8878C23.0452 21.1865 25.344 20.1284 27.7173 18.3856C27.738 18.3702 27.7512 18.347 27.7534 18.3217C28.3319 12.3368 26.7844 7.13799 23.6511 2.52928C23.6434 2.51388 23.6303 2.50286 23.615 2.49626ZM9.39873 15.1685C8.03164 15.1685 6.90519 13.9134 6.90519 12.372C6.90519 10.8306 8.00979 9.57556 9.39873 9.57556C10.7986 9.57556 11.9141 10.8417 11.8922 12.372C11.8922 13.9134 10.7876 15.1685 9.39873 15.1685ZM18.6181 15.1685C17.2511 15.1685 16.1246 13.9134 16.1246 12.372C16.1246 10.8306 17.2292 9.57556 18.6181 9.57556C20.018 9.57556 21.1335 10.8417 21.1117 12.372C21.1117 13.9134 20.018 15.1685 18.6181 15.1685Z" fill="white"/>
</svg>
