<svg width="13" height="25" viewBox="0 0 13 25" fill="none" xmlns="http://www.w3.org/2000/svg">
<path d="M8.00143 9.37789H11.6303C11.6945 9.60971 11.73 9.84954 11.7362 10.0913C11.6001 11.1718 11.4209 12.2454 11.2881 13.326C11.2917 13.4167 11.2764 13.5072 11.2433 13.5908C11.2103 13.6745 11.1604 13.7492 11.0971 13.8095C11.0338 13.8699 10.9588 13.9143 10.8775 13.9397C10.7962 13.9651 10.7108 13.9708 10.6272 13.9563C9.79844 13.9449 8.96972 13.9563 8.01954 13.9563V24.3772C7.63653 24.4043 7.36745 24.4366 7.10098 24.4401C6.14509 24.4506 5.19017 24.4638 4.23429 24.4533C3.43405 24.4445 3.41526 24.4034 3.41281 23.5502C3.40467 20.6722 3.39326 17.7942 3.37859 14.9162C3.37859 14.6294 3.33459 14.3418 3.302 13.9414H0V9.48281H3.23754C3.30357 9.2362 3.35204 8.98457 3.38257 8.73009C3.41843 7.67313 3.3925 6.61181 3.46991 5.55923C3.47659 4.49035 3.79655 3.45082 4.38449 2.58785C4.97243 1.72489 5.79837 1.08224 6.74565 0.750915C7.33254 0.551895 7.94419 0.449322 8.55969 0.44668C9.48053 0.438812 10.4023 0.551589 11.3239 0.615409C11.417 0.607201 11.5106 0.621383 11.5979 0.656922C11.6852 0.692462 11.7641 0.74846 11.8287 0.820835C11.8932 0.89321 11.9418 0.980137 11.9711 1.07527C12.0004 1.17041 12.0095 1.27135 11.9978 1.37075C11.9921 2.231 11.9888 3.09125 12.0051 3.95062C12.0149 4.47517 11.7687 4.65526 11.3205 4.64389C10.8316 4.63253 10.3337 4.61767 9.84154 4.64389C9.60064 4.62282 9.35843 4.65713 9.13088 4.74452C8.90333 4.83192 8.69578 4.97039 8.52209 5.15069C8.34839 5.33099 8.2125 5.54898 8.12359 5.79008C8.03467 6.03119 7.99471 6.28987 8.00641 6.54886C7.9624 7.43009 8.00143 8.32094 8.00143 9.37789Z" fill="white"/>
</svg>
