<svg width="28" height="27" viewBox="0 0 28 27" fill="none" xmlns="http://www.w3.org/2000/svg">
<path d="M27.0659 13.5949C27.0659 15.4814 27.1197 17.371 27.0518 19.2555C27.0511 20.394 26.7855 21.5167 26.2759 22.5347C25.7663 23.5527 25.0267 24.4381 24.1156 25.1208C23.195 25.8582 22.0761 26.3052 20.9009 26.4052C18.531 26.563 16.1552 26.6668 13.7803 26.7048C11.8957 26.7317 10.0081 26.6548 8.12458 26.567C6.45012 26.5023 4.84371 25.8877 3.55365 24.8182C2.76871 24.1867 2.13429 23.3881 1.6967 22.4806C1.25911 21.5731 1.02916 20.5796 1.02375 19.5721C0.923884 15.6113 0.867957 11.6415 1.02375 7.68762C1.18754 3.56102 3.75435 1.00736 7.86198 0.609875C9.40276 0.475598 10.9495 0.423926 12.4958 0.455078C15.2103 0.484041 17.9248 0.547952 20.6363 0.67179C22.3068 0.837704 23.8641 1.59142 25.0307 2.7986C26.1973 4.00577 26.8972 5.58796 27.0059 7.26318C27.0988 8.3148 27.1287 9.37342 27.1527 10.429C27.1767 11.4847 27.1578 12.5423 27.1578 13.5989L27.0659 13.5949ZM3.62046 13.5949H3.55755C3.55755 14.5007 3.54956 15.4075 3.55755 16.3124C3.56854 17.2551 3.59157 18.1989 3.61753 19.1417C3.69843 22.0119 5.14354 23.7177 8.01779 23.8845C11.3644 24.0842 14.7259 24.0383 18.0806 24.0562C18.91 24.0394 19.7368 23.9576 20.5534 23.8116C21.4457 23.7214 22.2841 23.3423 22.9412 22.7319C23.5982 22.1215 24.0381 21.3132 24.1937 20.43C24.3773 19.6201 24.4775 18.7935 24.4931 17.9632C24.524 14.8672 24.5251 11.7713 24.4802 8.67533C24.4406 7.84849 24.3179 7.02774 24.1137 6.22554C24.0101 5.66344 23.7623 5.13785 23.3947 4.7002C23.027 4.26256 22.5521 3.92784 22.0163 3.7288C21.0727 3.35929 20.0763 3.14284 19.0644 3.08763C16.0104 2.99975 12.9522 3.03071 9.89619 3.04469C9.18015 3.05244 8.46593 3.11689 7.76007 3.23744C7.17262 3.28038 6.5995 3.43899 6.07355 3.70417C5.5476 3.96934 5.07907 4.33585 4.69523 4.78262C4.31138 5.22939 4.01964 5.74762 3.83673 6.30752C3.65381 6.86741 3.58343 7.45794 3.62948 8.04516C3.59952 9.89075 3.62046 11.7403 3.62046 13.5899V13.5949Z" fill="white"/>
<path d="M13.9295 6.76796C14.8287 6.75847 15.7209 6.92691 16.5547 7.2636C17.3885 7.60029 18.1476 8.09858 18.7881 8.72977C19.4286 9.36097 19.9378 10.1126 20.2866 10.9414C20.6355 11.7702 20.817 12.6599 20.8206 13.5591C20.8294 15.336 20.1352 17.0443 18.8893 18.3113C17.6434 19.5783 15.9472 20.3012 14.1704 20.3222C12.3566 20.3425 10.6079 19.6474 9.30295 18.3875C7.99803 17.1276 7.24177 15.4044 7.19828 13.591C7.19212 11.7954 7.89658 10.0703 9.15764 8.79202C10.4187 7.51375 12.134 6.78614 13.9295 6.76796ZM18.1671 13.5591C18.1875 13.0035 18.0937 12.4496 17.8918 11.9316C17.69 11.4135 17.3843 10.9423 16.9933 10.547C16.6024 10.1517 16.1347 9.84059 15.6189 9.63293C15.1032 9.42528 14.5504 9.32545 13.9946 9.33959C13.4374 9.34252 12.8864 9.45701 12.3741 9.67632C11.8619 9.89563 11.3988 10.2153 11.0121 10.6165C10.6255 11.0177 10.323 11.4923 10.1227 12.0123C9.9224 12.5322 9.82833 13.087 9.84595 13.644C9.84054 14.1912 9.94582 14.7338 10.1556 15.2392C10.3654 15.7446 10.6752 16.2024 11.0665 16.5849C11.4578 16.9674 11.9226 17.2669 12.4327 17.4651C12.9427 17.6634 13.4874 17.7564 14.0343 17.7386C15.1355 17.7299 16.1884 17.2856 16.9629 16.5027C17.7373 15.7199 18.1703 14.6622 18.1671 13.5611V13.5591Z" fill="white"/>
<path d="M22.7028 6.60708C22.7078 6.74377 22.6924 6.88044 22.657 7.01255C22.562 7.32984 22.3761 7.61243 22.1225 7.82549C21.9363 8.0023 21.7118 8.1339 21.4666 8.2101C21.2214 8.28629 20.962 8.30505 20.7083 8.26491C20.3179 8.18433 19.9655 7.97627 19.7062 7.67346C19.447 7.37064 19.2958 6.99025 19.2764 6.5921C19.2783 6.36409 19.3257 6.13875 19.4158 5.9293C19.506 5.71985 19.6368 5.53051 19.8011 5.37237C19.9653 5.21424 20.1596 5.0905 20.3723 5.00841C20.5851 4.92632 20.812 4.88753 21.0399 4.89431C21.306 4.91679 21.5638 4.9987 21.7941 5.13401C22.0539 5.2872 22.2723 5.50141 22.4307 5.75808C22.589 6.01476 22.6824 6.30617 22.7028 6.60708Z" fill="white"/>
</svg>
