<svg width="147" height="167" viewBox="0 0 147 167" fill="none" xmlns="http://www.w3.org/2000/svg">
<g clip-path="url(#clip0_196_758)">
<path d="M96.9244 148.323C97.8296 148.135 98.1817 148.221 98.5153 148.079C118.416 133.798 131.149 114.792 134.583 90.3121C135.466 84.1325 134.729 77.8529 132.631 71.7982C128.246 58.7821 116.421 50.5147 102.756 50.8091C95.6328 50.922 88.8398 52.2762 82.9817 56.6669C82.7921 60.0245 82.7168 63.373 82.2802 66.52C81.5432 71.6506 79.2467 75.9848 74.7636 78.8816C71.4917 81.1046 68.0629 81.3809 66.0866 79.6961C63.4926 77.4848 63.2343 74.2785 64.5078 71.525C66.2699 67.6949 68.5075 64.057 70.8779 60.6388C72.4262 58.4395 74.5736 56.5377 76.4925 54.6542C73.5068 41.8711 60.8345 37.3601 46.6386 43.9209C46.3291 45.7899 46.0287 47.7735 45.6049 49.6517C43.8635 56.592 40.0498 62.0857 33.386 65.043C30.8311 66.1709 28.0014 66.7447 25.5217 64.5242C23.6597 62.8302 23.4013 59.6239 24.9717 56.2702C27.5373 50.9923 31.7087 47.0833 36.2599 43.6047C37.8913 42.436 39.5226 41.2672 41.1632 40.213C37.2625 20.3579 18.1742 7.60456 1.21894 17.0386C1.21328 15.5408 0.997475 14.2904 1.39929 13.5665C1.90616 12.7188 3.12648 12.1595 4.13667 11.8476C13.704 9.23257 22.8255 9.65009 30.8266 16.1511C36.8515 20.9673 41.1399 27.0759 44.2449 34.202C44.6709 35.2049 45.0968 36.2079 45.637 37.2017C45.6463 37.3162 45.884 37.4123 46.3689 37.719C47.3883 37.5216 48.6455 37.4202 49.8843 37.0899C65.0059 33.4511 73.3386 36.9288 81.5783 50.6715C82.9129 50.103 84.4761 49.516 85.9158 48.8237C94.4765 45.1373 103.259 44.1991 112.413 46.458C127.316 50.0978 137.694 61.8242 139.996 77.5437C141.26 86.0859 140.438 94.4504 137.998 102.715C132.014 122.675 120.898 138.899 103.185 150.354C102.317 151 101.325 151.541 100.457 152.187C100.352 152.311 100.256 152.549 99.9684 153.264C103.928 153.867 107.558 153.229 111.197 152.705C114.731 152.305 118.36 151.667 122.228 151.124C122.125 154.129 120.617 155.403 118.73 156.247C116.499 157.118 114.287 158.219 112.01 158.517C105.857 159.244 99.58 159.865 93.2662 160.028C88.3239 160.08 86.7401 157.557 88.5888 153.374C92.592 144.523 96.7095 135.662 100.827 126.802C101.516 125.363 102.453 124.135 103.581 122.431C105.955 124.775 105.189 126.681 104.527 128.463C101.825 134.904 99.4659 141.318 96.9244 148.323ZM28.6737 60.8126C36.4769 59.1465 40.9856 53.712 40.7563 46.5848C35.7757 50.4437 30.9959 53.9407 28.6737 60.8126ZM68.7352 75.4487C75.3494 73.3022 78.1805 68.4639 76.9319 61.534C72.884 65.5484 69.3891 69.2876 68.7352 75.4487Z" fill="white"/>
</g>
<defs>
<clipPath id="clip0_196_758">
<rect width="133.59" height="155.855" fill="white" transform="translate(0.759766 11.3403) rotate(-4.607)"/>
</clipPath>
</defs>
</svg>
