<svg width="27" height="22" viewBox="0 0 27 22" fill="none" xmlns="http://www.w3.org/2000/svg">
<path d="M0.621094 19.2375C3.18308 19.6094 5.78925 18.9696 7.88839 17.4535C6.87564 17.2392 5.93435 16.7699 5.15341 16.09C4.37248 15.41 3.77776 14.5419 3.42564 13.5678H4.86853C2.99289 12.3171 1.6456 10.8038 1.64019 8.24375C2.02253 8.37731 2.28771 8.47747 2.55823 8.56049C2.80985 8.64321 3.07254 8.68732 3.33736 8.69133C2.46617 7.80765 1.9053 6.66472 1.73926 5.43455C1.57321 4.20438 1.81098 2.95351 2.41667 1.87021C3.71984 3.43002 5.30613 4.72886 7.09209 5.69813C8.90069 6.65288 10.8947 7.20425 12.9365 7.3143C12.9555 7.00568 12.9843 6.7494 12.9861 6.49312C12.9489 5.18164 13.393 3.90196 14.2346 2.89589C15.0761 1.88982 16.2568 1.22704 17.5534 1.03279C18.2442 0.899479 18.9559 0.922252 19.6367 1.09945C20.3176 1.27665 20.9503 1.6038 21.4887 2.057C21.7199 2.27956 22.0131 2.42673 22.3296 2.47909C22.6462 2.53145 22.9711 2.48653 23.2616 2.35027C23.7656 2.14724 24.2533 1.90811 24.752 1.68703C24.9567 1.59679 25.1642 1.50655 25.4735 1.37751C25.468 2.53797 24.6882 3.14528 24.1706 4.01608L26.1326 3.42863C26.0587 3.69935 26.0623 3.93938 25.9441 4.07383C25.4151 4.69667 24.8494 5.28729 24.2498 5.8425C24.0699 5.99044 23.9256 6.17719 23.828 6.38878C23.7304 6.60037 23.682 6.83133 23.6862 7.06434C23.4013 13.2583 20.567 17.8993 14.9527 20.5631C13.0026 21.4912 10.8686 21.9675 8.70913 21.9566C6.54969 21.9456 4.42031 21.4477 2.47964 20.4999C2.04239 20.3098 1.61559 20.0965 1.20098 19.861C1.01883 19.7591 0.908753 19.556 0.621094 19.2375Z" fill="white"/>
</svg>
